<mxfile host="app.diagrams.net" modified="2024-04-11T21:02:13.319Z" agent="Mozilla/5.0 (Macintosh; Intel Mac OS X 10_15_7) AppleWebKit/537.36 (KHTML, like Gecko) Chrome/123.0.0.0 Safari/537.36" etag="tr3IHrNLFInJgzullDsL" version="24.2.3" type="github">
  <diagram name="Page-1" id="-98pJoUqqj__4yH2-iSp">
    <mxGraphModel dx="1224" dy="700" grid="1" gridSize="10" guides="1" tooltips="1" connect="1" arrows="1" fold="1" page="1" pageScale="1" pageWidth="850" pageHeight="1100" math="0" shadow="0">
      <root>
        <mxCell id="0" />
        <mxCell id="1" parent="0" />
        <mxCell id="me1G7gAer3CvM7mz6-fR-60" value="" style="rounded=0;whiteSpace=wrap;html=1;fillColor=#f8cecc;strokeColor=#b85450;fontStyle=1" vertex="1" parent="1">
          <mxGeometry x="200" y="3" width="1040" height="1397" as="geometry" />
        </mxCell>
        <mxCell id="me1G7gAer3CvM7mz6-fR-56" value="" style="rounded=0;whiteSpace=wrap;html=1;fillColor=#e1d5e7;strokeColor=#9673a6;fontStyle=1" vertex="1" parent="1">
          <mxGeometry x="760" y="40" width="440" height="1320" as="geometry" />
        </mxCell>
        <mxCell id="4dctXpntgjXw3aF1l8x9-28" value="" style="rounded=0;whiteSpace=wrap;html=1;fillColor=#e1d5e7;strokeColor=#9673a6;fontStyle=1" parent="1" vertex="1">
          <mxGeometry x="230" y="40" width="440" height="1040" as="geometry" />
        </mxCell>
        <mxCell id="4dctXpntgjXw3aF1l8x9-5" value="" style="rounded=0;whiteSpace=wrap;html=1;fontSize=16;fillColor=#d5e8d4;strokeColor=#82b366;fontStyle=1" parent="1" vertex="1">
          <mxGeometry x="430" y="400" width="200" height="160" as="geometry" />
        </mxCell>
        <mxCell id="4dctXpntgjXw3aF1l8x9-1" value="d" style="rounded=0;whiteSpace=wrap;html=1;fontSize=16;fillColor=#dae8fc;strokeColor=#6c8ebf;fontStyle=1" parent="1" vertex="1">
          <mxGeometry x="270" y="400" width="120" height="40" as="geometry" />
        </mxCell>
        <mxCell id="4dctXpntgjXw3aF1l8x9-2" value="" style="endArrow=classic;html=1;rounded=0;fontSize=16;fontStyle=1" parent="1" edge="1">
          <mxGeometry width="50" height="50" relative="1" as="geometry">
            <mxPoint x="350" y="420" as="sourcePoint" />
            <mxPoint x="430" y="420" as="targetPoint" />
          </mxGeometry>
        </mxCell>
        <mxCell id="4dctXpntgjXw3aF1l8x9-3" value="data = 9" style="rounded=0;whiteSpace=wrap;html=1;fontSize=16;fontStyle=1" parent="1" vertex="1">
          <mxGeometry x="470" y="440" width="120" height="40" as="geometry" />
        </mxCell>
        <mxCell id="4dctXpntgjXw3aF1l8x9-6" value="next" style="rounded=0;whiteSpace=wrap;html=1;fontSize=16;fillColor=#dae8fc;strokeColor=#6c8ebf;fontStyle=1" parent="1" vertex="1">
          <mxGeometry x="470" y="480" width="120" height="40" as="geometry" />
        </mxCell>
        <mxCell id="4dctXpntgjXw3aF1l8x9-7" value="" style="endArrow=classic;html=1;rounded=0;entryX=0.605;entryY=-0.012;entryDx=0;entryDy=0;entryPerimeter=0;fontSize=16;fontStyle=1" parent="1" edge="1">
          <mxGeometry width="50" height="50" relative="1" as="geometry">
            <mxPoint x="570" y="501.92" as="sourcePoint" />
            <mxPoint x="571" y="639.9999999999999" as="targetPoint" />
          </mxGeometry>
        </mxCell>
        <mxCell id="4dctXpntgjXw3aF1l8x9-16" value="a" style="rounded=0;whiteSpace=wrap;html=1;fontSize=16;fillColor=#dae8fc;strokeColor=#6c8ebf;fontStyle=1" parent="1" vertex="1">
          <mxGeometry x="270" y="640" width="120" height="40" as="geometry" />
        </mxCell>
        <mxCell id="4dctXpntgjXw3aF1l8x9-17" value="" style="endArrow=classic;html=1;rounded=0;fontSize=16;fontStyle=1" parent="1" edge="1">
          <mxGeometry width="50" height="50" relative="1" as="geometry">
            <mxPoint x="350" y="660" as="sourcePoint" />
            <mxPoint x="430" y="660" as="targetPoint" />
          </mxGeometry>
        </mxCell>
        <mxCell id="4dctXpntgjXw3aF1l8x9-18" value="" style="rounded=0;whiteSpace=wrap;html=1;fontSize=16;fillColor=#d5e8d4;strokeColor=#82b366;fontStyle=1" parent="1" vertex="1">
          <mxGeometry x="430" y="640" width="200" height="160" as="geometry" />
        </mxCell>
        <mxCell id="4dctXpntgjXw3aF1l8x9-19" value="data = 1" style="rounded=0;whiteSpace=wrap;html=1;fontSize=16;fontStyle=1" parent="1" vertex="1">
          <mxGeometry x="470" y="680" width="120" height="40" as="geometry" />
        </mxCell>
        <mxCell id="4dctXpntgjXw3aF1l8x9-20" value="next" style="rounded=0;whiteSpace=wrap;html=1;fontSize=16;fillColor=#dae8fc;strokeColor=#6c8ebf;fontStyle=1" parent="1" vertex="1">
          <mxGeometry x="470" y="720" width="120" height="40" as="geometry" />
        </mxCell>
        <mxCell id="4dctXpntgjXw3aF1l8x9-22" value="" style="rounded=0;whiteSpace=wrap;html=1;fontSize=16;fillColor=#d5e8d4;strokeColor=#82b366;fontStyle=1" parent="1" vertex="1">
          <mxGeometry x="430" y="162" width="200" height="160" as="geometry" />
        </mxCell>
        <mxCell id="4dctXpntgjXw3aF1l8x9-23" value="b" style="rounded=0;whiteSpace=wrap;html=1;fontSize=16;fillColor=#dae8fc;strokeColor=#6c8ebf;fontStyle=1" parent="1" vertex="1">
          <mxGeometry x="270" y="162" width="120" height="40" as="geometry" />
        </mxCell>
        <mxCell id="4dctXpntgjXw3aF1l8x9-24" value="" style="endArrow=classic;html=1;rounded=0;fontSize=16;fontStyle=1" parent="1" edge="1">
          <mxGeometry width="50" height="50" relative="1" as="geometry">
            <mxPoint x="350" y="182" as="sourcePoint" />
            <mxPoint x="430" y="182" as="targetPoint" />
          </mxGeometry>
        </mxCell>
        <mxCell id="4dctXpntgjXw3aF1l8x9-25" value="data = 7" style="rounded=0;whiteSpace=wrap;html=1;fontSize=16;fontStyle=1" parent="1" vertex="1">
          <mxGeometry x="470" y="202" width="120" height="40" as="geometry" />
        </mxCell>
        <mxCell id="4dctXpntgjXw3aF1l8x9-26" value="next" style="rounded=0;whiteSpace=wrap;html=1;fontSize=16;fillColor=#dae8fc;strokeColor=#6c8ebf;fontStyle=1" parent="1" vertex="1">
          <mxGeometry x="470" y="242" width="120" height="40" as="geometry" />
        </mxCell>
        <mxCell id="4dctXpntgjXw3aF1l8x9-27" value="" style="endArrow=classic;html=1;rounded=0;entryX=0.605;entryY=-0.012;entryDx=0;entryDy=0;entryPerimeter=0;fontSize=16;fontStyle=1" parent="1" edge="1">
          <mxGeometry width="50" height="50" relative="1" as="geometry">
            <mxPoint x="570" y="262" as="sourcePoint" />
            <mxPoint x="571" y="400" as="targetPoint" />
          </mxGeometry>
        </mxCell>
        <mxCell id="4dctXpntgjXw3aF1l8x9-29" value="Node reference" style="text;html=1;align=center;verticalAlign=middle;resizable=0;points=[];autosize=1;strokeColor=none;fillColor=none;fontStyle=1" parent="1" vertex="1">
          <mxGeometry x="275" y="202" width="110" height="30" as="geometry" />
        </mxCell>
        <mxCell id="4dctXpntgjXw3aF1l8x9-30" value="Node reference" style="text;html=1;align=center;verticalAlign=middle;resizable=0;points=[];autosize=1;strokeColor=none;fillColor=none;fontStyle=1" parent="1" vertex="1">
          <mxGeometry x="275" y="440" width="110" height="30" as="geometry" />
        </mxCell>
        <mxCell id="4dctXpntgjXw3aF1l8x9-31" value="Node reference" style="text;html=1;align=center;verticalAlign=middle;resizable=0;points=[];autosize=1;strokeColor=none;fillColor=none;fontStyle=1" parent="1" vertex="1">
          <mxGeometry x="275" y="680" width="110" height="30" as="geometry" />
        </mxCell>
        <mxCell id="4dctXpntgjXw3aF1l8x9-35" value="Node instance" style="text;html=1;align=center;verticalAlign=middle;resizable=0;points=[];autosize=1;strokeColor=none;fillColor=none;fontStyle=1" parent="1" vertex="1">
          <mxGeometry x="430" y="322" width="100" height="30" as="geometry" />
        </mxCell>
        <mxCell id="4dctXpntgjXw3aF1l8x9-36" value="Node instance" style="text;html=1;align=center;verticalAlign=middle;resizable=0;points=[];autosize=1;strokeColor=none;fillColor=none;fontStyle=1" parent="1" vertex="1">
          <mxGeometry x="430" y="560" width="100" height="30" as="geometry" />
        </mxCell>
        <mxCell id="4dctXpntgjXw3aF1l8x9-37" value="Node instance" style="text;html=1;align=center;verticalAlign=middle;resizable=0;points=[];autosize=1;strokeColor=none;fillColor=none;fontStyle=1" parent="1" vertex="1">
          <mxGeometry x="430" y="800" width="100" height="30" as="geometry" />
        </mxCell>
        <mxCell id="4dctXpntgjXw3aF1l8x9-39" value="Node reference" style="text;html=1;align=center;verticalAlign=middle;resizable=0;points=[];autosize=1;strokeColor=none;fillColor=none;fontStyle=1" parent="1" vertex="1">
          <mxGeometry x="460" y="280" width="110" height="30" as="geometry" />
        </mxCell>
        <mxCell id="4dctXpntgjXw3aF1l8x9-40" value="Node reference" style="text;html=1;align=center;verticalAlign=middle;resizable=0;points=[];autosize=1;strokeColor=none;fillColor=none;fontStyle=1" parent="1" vertex="1">
          <mxGeometry x="460" y="520" width="110" height="30" as="geometry" />
        </mxCell>
        <mxCell id="4dctXpntgjXw3aF1l8x9-41" value="Node reference" style="text;html=1;align=center;verticalAlign=middle;resizable=0;points=[];autosize=1;strokeColor=none;fillColor=none;fontStyle=1" parent="1" vertex="1">
          <mxGeometry x="460" y="760" width="110" height="30" as="geometry" />
        </mxCell>
        <mxCell id="me1G7gAer3CvM7mz6-fR-1" value="" style="endArrow=classic;html=1;rounded=0;entryX=0.605;entryY=-0.012;entryDx=0;entryDy=0;entryPerimeter=0;fontSize=16;fontStyle=1" edge="1" parent="1">
          <mxGeometry width="50" height="50" relative="1" as="geometry">
            <mxPoint x="574" y="740" as="sourcePoint" />
            <mxPoint x="575" y="878.0799999999999" as="targetPoint" />
          </mxGeometry>
        </mxCell>
        <mxCell id="me1G7gAer3CvM7mz6-fR-3" value="c" style="rounded=0;whiteSpace=wrap;html=1;fontSize=16;fillColor=#dae8fc;strokeColor=#6c8ebf;fontStyle=1" vertex="1" parent="1">
          <mxGeometry x="270" y="880" width="120" height="40" as="geometry" />
        </mxCell>
        <mxCell id="me1G7gAer3CvM7mz6-fR-4" value="" style="endArrow=classic;html=1;rounded=0;fontSize=16;fontStyle=1" edge="1" parent="1">
          <mxGeometry width="50" height="50" relative="1" as="geometry">
            <mxPoint x="350" y="900" as="sourcePoint" />
            <mxPoint x="430" y="900" as="targetPoint" />
          </mxGeometry>
        </mxCell>
        <mxCell id="me1G7gAer3CvM7mz6-fR-5" value="" style="rounded=0;whiteSpace=wrap;html=1;fontSize=16;fillColor=#d5e8d4;strokeColor=#82b366;fontStyle=1" vertex="1" parent="1">
          <mxGeometry x="430" y="880" width="200" height="160" as="geometry" />
        </mxCell>
        <mxCell id="me1G7gAer3CvM7mz6-fR-6" value="data = 2" style="rounded=0;whiteSpace=wrap;html=1;fontSize=16;fontStyle=1" vertex="1" parent="1">
          <mxGeometry x="470" y="920" width="120" height="40" as="geometry" />
        </mxCell>
        <mxCell id="me1G7gAer3CvM7mz6-fR-7" value="next = null" style="rounded=0;whiteSpace=wrap;html=1;fontSize=16;fillColor=#dae8fc;strokeColor=#6c8ebf;fontStyle=1" vertex="1" parent="1">
          <mxGeometry x="470" y="960" width="120" height="40" as="geometry" />
        </mxCell>
        <mxCell id="me1G7gAer3CvM7mz6-fR-8" value="Node reference" style="text;html=1;align=center;verticalAlign=middle;resizable=0;points=[];autosize=1;strokeColor=none;fillColor=none;fontStyle=1" vertex="1" parent="1">
          <mxGeometry x="275" y="920" width="110" height="30" as="geometry" />
        </mxCell>
        <mxCell id="me1G7gAer3CvM7mz6-fR-9" value="Node instance" style="text;html=1;align=center;verticalAlign=middle;resizable=0;points=[];autosize=1;strokeColor=none;fillColor=none;fontStyle=1" vertex="1" parent="1">
          <mxGeometry x="430" y="1040" width="100" height="30" as="geometry" />
        </mxCell>
        <mxCell id="me1G7gAer3CvM7mz6-fR-10" value="Node reference" style="text;html=1;align=center;verticalAlign=middle;resizable=0;points=[];autosize=1;strokeColor=none;fillColor=none;fontStyle=1" vertex="1" parent="1">
          <mxGeometry x="460" y="1000" width="110" height="30" as="geometry" />
        </mxCell>
        <mxCell id="me1G7gAer3CvM7mz6-fR-13" value="" style="rounded=0;whiteSpace=wrap;html=1;fontSize=16;fillColor=#d5e8d4;strokeColor=#82b366;fontStyle=1" vertex="1" parent="1">
          <mxGeometry x="950" y="400" width="200" height="160" as="geometry" />
        </mxCell>
        <mxCell id="me1G7gAer3CvM7mz6-fR-14" value="d" style="rounded=0;whiteSpace=wrap;html=1;fontSize=16;fillColor=#dae8fc;strokeColor=#6c8ebf;fontStyle=1" vertex="1" parent="1">
          <mxGeometry x="790" y="400" width="120" height="40" as="geometry" />
        </mxCell>
        <mxCell id="me1G7gAer3CvM7mz6-fR-15" value="" style="endArrow=classic;html=1;rounded=0;fontSize=16;fontStyle=1" edge="1" parent="1">
          <mxGeometry width="50" height="50" relative="1" as="geometry">
            <mxPoint x="870" y="420" as="sourcePoint" />
            <mxPoint x="950" y="420" as="targetPoint" />
          </mxGeometry>
        </mxCell>
        <mxCell id="me1G7gAer3CvM7mz6-fR-16" value="data = 9" style="rounded=0;whiteSpace=wrap;html=1;fontSize=16;fontStyle=1" vertex="1" parent="1">
          <mxGeometry x="990" y="440" width="120" height="40" as="geometry" />
        </mxCell>
        <mxCell id="me1G7gAer3CvM7mz6-fR-17" value="next" style="rounded=0;whiteSpace=wrap;html=1;fontSize=16;fillColor=#dae8fc;strokeColor=#6c8ebf;fontStyle=1" vertex="1" parent="1">
          <mxGeometry x="990" y="480" width="120" height="40" as="geometry" />
        </mxCell>
        <mxCell id="me1G7gAer3CvM7mz6-fR-18" value="" style="endArrow=classic;html=1;rounded=0;entryX=0.605;entryY=-0.012;entryDx=0;entryDy=0;entryPerimeter=0;fontSize=16;fontStyle=1" edge="1" parent="1">
          <mxGeometry width="50" height="50" relative="1" as="geometry">
            <mxPoint x="1090" y="501.92" as="sourcePoint" />
            <mxPoint x="1091" y="639.9999999999999" as="targetPoint" />
          </mxGeometry>
        </mxCell>
        <mxCell id="me1G7gAer3CvM7mz6-fR-19" value="a" style="rounded=0;whiteSpace=wrap;html=1;fontSize=16;fillColor=#dae8fc;strokeColor=#6c8ebf;fontStyle=1" vertex="1" parent="1">
          <mxGeometry x="800" y="920" width="120" height="40" as="geometry" />
        </mxCell>
        <mxCell id="me1G7gAer3CvM7mz6-fR-20" value="" style="endArrow=classic;html=1;rounded=0;fontSize=16;fontStyle=1" edge="1" parent="1">
          <mxGeometry width="50" height="50" relative="1" as="geometry">
            <mxPoint x="880" y="940" as="sourcePoint" />
            <mxPoint x="960" y="940" as="targetPoint" />
          </mxGeometry>
        </mxCell>
        <mxCell id="me1G7gAer3CvM7mz6-fR-21" value="" style="rounded=0;whiteSpace=wrap;html=1;fontSize=16;fillColor=#d5e8d4;strokeColor=#82b366;fontStyle=1" vertex="1" parent="1">
          <mxGeometry x="960" y="920" width="200" height="160" as="geometry" />
        </mxCell>
        <mxCell id="me1G7gAer3CvM7mz6-fR-22" value="data = 1" style="rounded=0;whiteSpace=wrap;html=1;fontSize=16;fontStyle=1" vertex="1" parent="1">
          <mxGeometry x="1000" y="960" width="120" height="40" as="geometry" />
        </mxCell>
        <mxCell id="me1G7gAer3CvM7mz6-fR-23" value="next" style="rounded=0;whiteSpace=wrap;html=1;fontSize=16;fillColor=#dae8fc;strokeColor=#6c8ebf;fontStyle=1" vertex="1" parent="1">
          <mxGeometry x="1000" y="1000" width="120" height="40" as="geometry" />
        </mxCell>
        <mxCell id="me1G7gAer3CvM7mz6-fR-24" value="" style="rounded=0;whiteSpace=wrap;html=1;fontSize=16;fillColor=#d5e8d4;strokeColor=#82b366;fontStyle=1" vertex="1" parent="1">
          <mxGeometry x="950" y="162" width="200" height="160" as="geometry" />
        </mxCell>
        <mxCell id="me1G7gAer3CvM7mz6-fR-25" value="b" style="rounded=0;whiteSpace=wrap;html=1;fontSize=16;fillColor=#dae8fc;strokeColor=#6c8ebf;fontStyle=1" vertex="1" parent="1">
          <mxGeometry x="790" y="162" width="120" height="40" as="geometry" />
        </mxCell>
        <mxCell id="me1G7gAer3CvM7mz6-fR-26" value="" style="endArrow=classic;html=1;rounded=0;fontSize=16;fontStyle=1" edge="1" parent="1">
          <mxGeometry width="50" height="50" relative="1" as="geometry">
            <mxPoint x="870" y="182" as="sourcePoint" />
            <mxPoint x="950" y="182" as="targetPoint" />
          </mxGeometry>
        </mxCell>
        <mxCell id="me1G7gAer3CvM7mz6-fR-27" value="data = 7" style="rounded=0;whiteSpace=wrap;html=1;fontSize=16;fontStyle=1" vertex="1" parent="1">
          <mxGeometry x="990" y="202" width="120" height="40" as="geometry" />
        </mxCell>
        <mxCell id="me1G7gAer3CvM7mz6-fR-28" value="next" style="rounded=0;whiteSpace=wrap;html=1;fontSize=16;fillColor=#dae8fc;strokeColor=#6c8ebf;fontStyle=1" vertex="1" parent="1">
          <mxGeometry x="990" y="242" width="120" height="40" as="geometry" />
        </mxCell>
        <mxCell id="me1G7gAer3CvM7mz6-fR-29" value="" style="endArrow=classic;html=1;rounded=0;entryX=0.605;entryY=-0.012;entryDx=0;entryDy=0;entryPerimeter=0;fontSize=16;fontStyle=1" edge="1" parent="1">
          <mxGeometry width="50" height="50" relative="1" as="geometry">
            <mxPoint x="1090" y="262" as="sourcePoint" />
            <mxPoint x="1091" y="400" as="targetPoint" />
          </mxGeometry>
        </mxCell>
        <mxCell id="me1G7gAer3CvM7mz6-fR-30" value="Node reference" style="text;html=1;align=center;verticalAlign=middle;resizable=0;points=[];autosize=1;strokeColor=none;fillColor=none;fontStyle=1" vertex="1" parent="1">
          <mxGeometry x="795" y="202" width="110" height="30" as="geometry" />
        </mxCell>
        <mxCell id="me1G7gAer3CvM7mz6-fR-31" value="Node reference" style="text;html=1;align=center;verticalAlign=middle;resizable=0;points=[];autosize=1;strokeColor=none;fillColor=none;fontStyle=1" vertex="1" parent="1">
          <mxGeometry x="795" y="440" width="110" height="30" as="geometry" />
        </mxCell>
        <mxCell id="me1G7gAer3CvM7mz6-fR-32" value="Node reference" style="text;html=1;align=center;verticalAlign=middle;resizable=0;points=[];autosize=1;strokeColor=none;fillColor=none;fontStyle=1" vertex="1" parent="1">
          <mxGeometry x="805" y="960" width="110" height="30" as="geometry" />
        </mxCell>
        <mxCell id="me1G7gAer3CvM7mz6-fR-33" value="Node instance" style="text;html=1;align=center;verticalAlign=middle;resizable=0;points=[];autosize=1;strokeColor=none;fillColor=none;fontStyle=1" vertex="1" parent="1">
          <mxGeometry x="950" y="322" width="100" height="30" as="geometry" />
        </mxCell>
        <mxCell id="me1G7gAer3CvM7mz6-fR-34" value="Node instance" style="text;html=1;align=center;verticalAlign=middle;resizable=0;points=[];autosize=1;strokeColor=none;fillColor=none;fontStyle=1" vertex="1" parent="1">
          <mxGeometry x="950" y="560" width="100" height="30" as="geometry" />
        </mxCell>
        <mxCell id="me1G7gAer3CvM7mz6-fR-35" value="Node instance" style="text;html=1;align=center;verticalAlign=middle;resizable=0;points=[];autosize=1;strokeColor=none;fillColor=none;fontStyle=1" vertex="1" parent="1">
          <mxGeometry x="960" y="1080" width="100" height="30" as="geometry" />
        </mxCell>
        <mxCell id="me1G7gAer3CvM7mz6-fR-36" value="Node reference" style="text;html=1;align=center;verticalAlign=middle;resizable=0;points=[];autosize=1;strokeColor=none;fillColor=none;fontStyle=1" vertex="1" parent="1">
          <mxGeometry x="980" y="280" width="110" height="30" as="geometry" />
        </mxCell>
        <mxCell id="me1G7gAer3CvM7mz6-fR-37" value="Node reference" style="text;html=1;align=center;verticalAlign=middle;resizable=0;points=[];autosize=1;strokeColor=none;fillColor=none;fontStyle=1" vertex="1" parent="1">
          <mxGeometry x="980" y="520" width="110" height="30" as="geometry" />
        </mxCell>
        <mxCell id="me1G7gAer3CvM7mz6-fR-38" value="Node reference" style="text;html=1;align=center;verticalAlign=middle;resizable=0;points=[];autosize=1;strokeColor=none;fillColor=none;fontStyle=1" vertex="1" parent="1">
          <mxGeometry x="990" y="1040" width="110" height="30" as="geometry" />
        </mxCell>
        <mxCell id="me1G7gAer3CvM7mz6-fR-39" value="" style="endArrow=classic;html=1;rounded=0;entryX=0.605;entryY=-0.012;entryDx=0;entryDy=0;entryPerimeter=0;fontSize=16;fontStyle=1" edge="1" parent="1">
          <mxGeometry width="50" height="50" relative="1" as="geometry">
            <mxPoint x="1104" y="1020" as="sourcePoint" />
            <mxPoint x="1105" y="1158.08" as="targetPoint" />
          </mxGeometry>
        </mxCell>
        <mxCell id="me1G7gAer3CvM7mz6-fR-40" value="c" style="rounded=0;whiteSpace=wrap;html=1;fontSize=16;fillColor=#dae8fc;strokeColor=#6c8ebf;fontStyle=1" vertex="1" parent="1">
          <mxGeometry x="800" y="1160" width="120" height="40" as="geometry" />
        </mxCell>
        <mxCell id="me1G7gAer3CvM7mz6-fR-41" value="" style="endArrow=classic;html=1;rounded=0;fontSize=16;fontStyle=1" edge="1" parent="1">
          <mxGeometry width="50" height="50" relative="1" as="geometry">
            <mxPoint x="880" y="1180" as="sourcePoint" />
            <mxPoint x="960" y="1180" as="targetPoint" />
          </mxGeometry>
        </mxCell>
        <mxCell id="me1G7gAer3CvM7mz6-fR-42" value="" style="rounded=0;whiteSpace=wrap;html=1;fontSize=16;fillColor=#d5e8d4;strokeColor=#82b366;fontStyle=1" vertex="1" parent="1">
          <mxGeometry x="960" y="1160" width="200" height="160" as="geometry" />
        </mxCell>
        <mxCell id="me1G7gAer3CvM7mz6-fR-43" value="data = 2" style="rounded=0;whiteSpace=wrap;html=1;fontSize=16;fontStyle=1" vertex="1" parent="1">
          <mxGeometry x="1000" y="1200" width="120" height="40" as="geometry" />
        </mxCell>
        <mxCell id="me1G7gAer3CvM7mz6-fR-44" value="next = null" style="rounded=0;whiteSpace=wrap;html=1;fontSize=16;fillColor=#dae8fc;strokeColor=#6c8ebf;fontStyle=1" vertex="1" parent="1">
          <mxGeometry x="1000" y="1240" width="120" height="40" as="geometry" />
        </mxCell>
        <mxCell id="me1G7gAer3CvM7mz6-fR-45" value="Node reference" style="text;html=1;align=center;verticalAlign=middle;resizable=0;points=[];autosize=1;strokeColor=none;fillColor=none;fontStyle=1" vertex="1" parent="1">
          <mxGeometry x="805" y="1200" width="110" height="30" as="geometry" />
        </mxCell>
        <mxCell id="me1G7gAer3CvM7mz6-fR-46" value="Node instance" style="text;html=1;align=center;verticalAlign=middle;resizable=0;points=[];autosize=1;strokeColor=none;fillColor=none;fontStyle=1" vertex="1" parent="1">
          <mxGeometry x="960" y="1320" width="100" height="30" as="geometry" />
        </mxCell>
        <mxCell id="me1G7gAer3CvM7mz6-fR-47" value="Node reference" style="text;html=1;align=center;verticalAlign=middle;resizable=0;points=[];autosize=1;strokeColor=none;fillColor=none;fontStyle=1" vertex="1" parent="1">
          <mxGeometry x="990" y="1280" width="110" height="30" as="geometry" />
        </mxCell>
        <mxCell id="me1G7gAer3CvM7mz6-fR-48" value="" style="rounded=0;whiteSpace=wrap;html=1;fontSize=16;fillColor=#d5e8d4;strokeColor=#82b366;fontStyle=1" vertex="1" parent="1">
          <mxGeometry x="960" y="640" width="200" height="160" as="geometry" />
        </mxCell>
        <mxCell id="me1G7gAer3CvM7mz6-fR-51" value="data = 15" style="rounded=0;whiteSpace=wrap;html=1;fontSize=16;fontStyle=1" vertex="1" parent="1">
          <mxGeometry x="1000" y="680" width="120" height="40" as="geometry" />
        </mxCell>
        <mxCell id="me1G7gAer3CvM7mz6-fR-52" value="next = null" style="rounded=0;whiteSpace=wrap;html=1;fontSize=16;fillColor=#dae8fc;strokeColor=#6c8ebf;fontStyle=1" vertex="1" parent="1">
          <mxGeometry x="1000" y="720" width="120" height="40" as="geometry" />
        </mxCell>
        <mxCell id="me1G7gAer3CvM7mz6-fR-54" value="Node instance" style="text;html=1;align=center;verticalAlign=middle;resizable=0;points=[];autosize=1;strokeColor=none;fillColor=none;fontStyle=1" vertex="1" parent="1">
          <mxGeometry x="960" y="800" width="100" height="30" as="geometry" />
        </mxCell>
        <mxCell id="me1G7gAer3CvM7mz6-fR-55" value="Node reference" style="text;html=1;align=center;verticalAlign=middle;resizable=0;points=[];autosize=1;strokeColor=none;fillColor=none;fontStyle=1" vertex="1" parent="1">
          <mxGeometry x="990" y="760" width="110" height="30" as="geometry" />
        </mxCell>
        <mxCell id="me1G7gAer3CvM7mz6-fR-58" value="Before&amp;nbsp;&lt;span style=&quot;color: inherit; font-family: SFMono-Regular, Menlo, Monaco, Consolas, &amp;quot;Liberation Mono&amp;quot;, &amp;quot;Courier New&amp;quot;, monospace; font-size: 21px; text-align: left; background-color: initial;&quot;&gt;d.next = new Node(15, null);&lt;/span&gt;" style="text;html=1;align=center;verticalAlign=middle;resizable=0;points=[];autosize=1;strokeColor=none;fillColor=none;fontSize=21;fontStyle=1" vertex="1" parent="1">
          <mxGeometry x="230" y="63" width="450" height="40" as="geometry" />
        </mxCell>
        <mxCell id="me1G7gAer3CvM7mz6-fR-59" value="After&amp;nbsp;&lt;span style=&quot;color: inherit; font-family: SFMono-Regular, Menlo, Monaco, Consolas, &amp;quot;Liberation Mono&amp;quot;, &amp;quot;Courier New&amp;quot;, monospace; font-size: 21px; text-align: left; background-color: initial;&quot;&gt;d.next = new Node(15, null);&lt;/span&gt;" style="text;html=1;align=center;verticalAlign=middle;resizable=0;points=[];autosize=1;strokeColor=none;fillColor=none;fontSize=21;fontStyle=1" vertex="1" parent="1">
          <mxGeometry x="770" y="63" width="430" height="40" as="geometry" />
        </mxCell>
      </root>
    </mxGraphModel>
  </diagram>
</mxfile>
